<?xml version="1.0" encoding="UTF-8"?>
<svg xmlns="http://www.w3.org/2000/svg" xmlns:xlink="http://www.w3.org/1999/xlink" width="48px" height="48px" viewBox="0 0 48 48" version="1.1">
<g id="surface1">
<path style=" stroke:none;fill-rule:nonzero;fill:rgb(0%,0%,0%);fill-opacity:1;" d="M 21.84375 0.0234375 C 19.78125 0.160156 17.898438 1.429688 16.738281 3.460938 C 16.171875 4.445312 15.828125 5.535156 15.679688 6.816406 C 15.65625 7.042969 15.652344 7.410156 15.644531 10.394531 L 15.640625 13.714844 L 18.242188 13.710938 L 20.847656 13.707031 L 20.863281 7.394531 L 20.90625 7.253906 C 20.988281 6.960938 21.101562 6.753906 21.289062 6.542969 C 21.5 6.308594 21.722656 6.175781 21.996094 6.117188 C 22.191406 6.078125 41.445312 6.078125 41.640625 6.117188 C 42.175781 6.230469 42.613281 6.707031 42.75 7.332031 C 42.78125 7.492188 42.78125 7.496094 42.78125 23.988281 C 42.78125 38.148438 42.78125 40.507812 42.757812 40.625 C 42.699219 40.941406 42.589844 41.171875 42.367188 41.429688 C 42.234375 41.585938 42.171875 41.640625 42.046875 41.714844 C 41.957031 41.769531 41.828125 41.832031 41.75 41.859375 L 41.613281 41.90625 L 22.023438 41.90625 L 21.886719 41.859375 C 21.382812 41.6875 20.984375 41.199219 20.878906 40.621094 C 20.859375 40.511719 20.855469 39.976562 20.855469 37.386719 L 20.855469 34.289062 L 15.640625 34.289062 L 15.644531 37.613281 C 15.652344 41.210938 15.648438 41.035156 15.746094 41.671875 C 16.113281 44.035156 17.433594 46.097656 19.277344 47.171875 C 20.128906 47.671875 20.976562 47.929688 21.957031 47.984375 C 22.425781 48.011719 41.214844 48.011719 41.6875 47.984375 C 42.667969 47.925781 43.511719 47.671875 44.371094 47.167969 C 46.433594 45.957031 47.804688 43.5625 47.980469 40.863281 C 47.992188 40.652344 47.996094 35.8125 47.992188 23.808594 C 47.988281 8.21875 47.984375 7.035156 47.957031 6.808594 C 47.867188 6.050781 47.746094 5.503906 47.535156 4.875 C 46.78125 2.652344 45.171875 0.949219 43.210938 0.300781 C 42.734375 0.144531 42.277344 0.0585938 41.753906 0.0195312 C 41.398438 -0.00390625 22.195312 -0.00390625 21.84375 0.0234375 Z M 21.84375 0.0234375 "/>
<path style=" stroke:none;fill-rule:nonzero;fill:rgb(0%,0%,0%);fill-opacity:1;" d="M 3.328125 18.914062 C 1.496094 21.753906 0.00390625 24.082031 0.0078125 24.09375 C 0.0273438 24.128906 6.550781 34.234375 6.613281 34.324219 L 6.671875 34.410156 L 9.839844 34.410156 C 11.582031 34.410156 13.007812 34.40625 13.007812 34.398438 C 13.007812 34.394531 11.972656 32.785156 10.703125 30.820312 C 9.4375 28.855469 8.402344 27.246094 8.402344 27.238281 C 8.402344 27.234375 13.375 27.230469 19.453125 27.230469 L 30.503906 27.230469 L 30.503906 20.9375 L 19.445312 20.933594 L 8.386719 20.925781 L 10.664062 17.398438 C 11.917969 15.457031 12.957031 13.84375 12.976562 13.808594 L 13.011719 13.757812 L 6.65625 13.757812 Z M 3.328125 18.914062 "/>
</g>
</svg>
